<svg width="33" height="33" viewBox="0 0 33 33" fill="none" xmlns="http://www.w3.org/2000/svg">
<path d="M7.7055 3.29999C6.6759 3.29999 5.76675 4.02269 5.577 5.06219C5.3328 6.41189 4.95 8.81429 4.95 10.725C4.95 12.7561 5.9994 14.5414 7.58175 15.5694C8.0289 15.8614 8.25 16.2376 8.25 16.5594V17.2359C8.25 17.2656 8.24835 17.2953 8.24505 17.325C8.2005 17.754 7.9959 19.6828 7.80285 21.6661C7.6131 23.6214 7.425 25.7086 7.425 26.4C7.425 27.2752 7.77267 28.1146 8.39154 28.7334C9.01041 29.3523 9.84978 29.7 10.725 29.7C11.6002 29.7 12.4396 29.3523 13.0584 28.7334C13.6773 28.1146 14.025 27.2752 14.025 26.4C14.025 25.707 13.8369 23.6214 13.6471 21.6661C13.5061 20.219 13.3587 18.7725 13.2049 17.3266L13.2 17.2359V16.5594C13.2 16.236 13.4211 15.8598 13.8682 15.5694C14.676 15.0453 15.3399 14.3276 15.7995 13.4815C16.2592 12.6354 16.5 11.6879 16.5 10.725C16.5 8.81429 16.1172 6.41189 15.873 5.06219C15.7813 4.56544 15.5178 4.11676 15.1287 3.79462C14.7396 3.47248 14.2496 3.29739 13.7445 3.29999C13.1835 3.29999 12.672 3.50954 12.2859 3.85439C11.8447 3.49579 11.2935 3.30002 10.725 3.29999C10.1326 3.29999 9.5898 3.50789 9.1641 3.85439C8.76348 3.49616 8.24291 3.29871 7.7055 3.29999ZM9.9 5.77499C9.9 5.55618 9.98692 5.34634 10.1416 5.19162C10.2964 5.03691 10.5062 4.94999 10.725 4.94999C10.9438 4.94999 11.1536 5.03691 11.3084 5.19162C11.4631 5.34634 11.55 5.55618 11.55 5.77499V10.725C11.55 10.9438 11.6369 11.1536 11.7916 11.3083C11.9464 11.4631 12.1562 11.55 12.375 11.55C12.5938 11.55 12.8036 11.4631 12.9584 11.3083C13.1131 11.1536 13.2 10.9438 13.2 10.725V5.49449C13.2 5.42298 13.2141 5.35218 13.2414 5.28611C13.2688 5.22005 13.3089 5.16003 13.3595 5.10947C13.41 5.0589 13.4701 5.0188 13.5361 4.99143C13.6022 4.96407 13.673 4.94999 13.7445 4.94999C14.0035 4.94999 14.2065 5.12819 14.2494 5.35754C14.4919 6.69899 14.85 8.97434 14.85 10.725C14.8501 11.4131 14.678 12.0903 14.3495 12.6949C14.0209 13.2995 13.5464 13.8124 12.969 14.1867C12.2446 14.6569 11.55 15.4836 11.55 16.5594V17.2359C11.55 17.3239 11.5544 17.4119 11.5632 17.4999C11.6094 17.9256 11.8123 19.8495 12.0054 21.8262C12.2001 23.8309 12.375 25.8109 12.375 26.4C12.375 26.8376 12.2012 27.2573 11.8917 27.5667C11.5823 27.8762 11.1626 28.05 10.725 28.05C10.2874 28.05 9.86771 27.8762 9.55827 27.5667C9.24884 27.2573 9.075 26.8376 9.075 26.4C9.075 25.8109 9.2499 23.8309 9.4446 21.8262C9.63765 19.8495 9.8406 17.9256 9.8868 17.4999C9.8956 17.4119 9.9 17.3239 9.9 17.2359V16.5594C9.9 15.4836 9.20535 14.6569 8.481 14.1867C7.90361 13.8124 7.42905 13.2995 7.10051 12.6949C6.77198 12.0903 6.59992 11.4131 6.6 10.725C6.6 8.97599 6.95805 6.69899 7.2006 5.35754C7.2232 5.24067 7.28649 5.1356 7.37923 5.06098C7.47197 4.98637 7.58815 4.94704 7.70715 4.94999C7.85127 4.95042 7.98934 5.00798 8.0911 5.11005C8.19286 5.21211 8.25 5.35036 8.25 5.49449V10.725C8.25 10.9438 8.33692 11.1536 8.49163 11.3083C8.64635 11.4631 8.85619 11.55 9.075 11.55C9.2938 11.55 9.50364 11.4631 9.65836 11.3083C9.81308 11.1536 9.9 10.9438 9.9 10.725V5.77499ZM18.15 10.725C18.15 8.75575 18.9323 6.86718 20.3247 5.47472C21.7172 4.08226 23.6058 3.29999 25.575 3.29999C25.7938 3.29999 26.0036 3.38691 26.1584 3.54162C26.3131 3.69634 26.4 3.90618 26.4 4.12499V15.6387L26.433 16.0083C26.5616 17.4908 26.687 18.9736 26.8092 20.4567C27.0138 22.9432 27.225 25.6723 27.225 26.4C27.225 27.2752 26.8773 28.1146 26.2584 28.7334C25.6396 29.3523 24.8002 29.7 23.925 29.7C23.0498 29.7 22.2104 29.3523 21.5915 28.7334C20.9727 28.1146 20.625 27.2752 20.625 26.4C20.625 25.674 20.8362 22.9432 21.0408 20.4567C21.1431 19.201 21.247 17.9866 21.3246 17.0874L21.3741 16.5H20.625C19.9686 16.5 19.3391 16.2392 18.8749 15.7751C18.4108 15.3109 18.15 14.6814 18.15 14.025V10.725ZM23.0967 15.7476L23.062 16.1518L22.968 17.2293C22.8904 18.1269 22.7865 19.338 22.6842 20.592C22.4763 23.128 22.275 25.7598 22.275 26.4C22.275 26.8376 22.4488 27.2573 22.7583 27.5667C23.0677 27.8762 23.4874 28.05 23.925 28.05C24.3626 28.05 24.7823 27.8762 25.0917 27.5667C25.4012 27.2573 25.575 26.8376 25.575 26.4C25.575 25.7598 25.3737 23.128 25.1658 20.592C25.0434 19.1116 24.9174 17.6316 24.7879 16.1518L24.7533 15.7492V15.7476L24.75 15.675V5.00774C23.3753 5.20616 22.1182 5.89338 21.209 6.94344C20.2999 7.9935 19.7996 9.33604 19.8 10.725V14.025C19.8 14.2438 19.8869 14.4536 20.0416 14.6083C20.1964 14.7631 20.4062 14.85 20.625 14.85H22.275C22.3894 14.85 22.5026 14.8738 22.6074 14.92C22.7121 14.9661 22.8061 15.0335 22.8834 15.1179C22.9607 15.2023 23.0196 15.3019 23.0563 15.4103C23.093 15.5187 23.1068 15.6336 23.0967 15.7476Z" fill="black"/>
</svg>
