<svg width="33" height="33" viewBox="0 0 33 33" fill="none" xmlns="http://www.w3.org/2000/svg">
<path d="M17.875 30.25C16.7502 30.25 15.675 29.7811 13.5259 28.842C11.0165 27.7475 9.097 26.9087 7.76462 26.125H2.75M17.875 30.25C18.9998 30.25 20.075 29.7811 22.2241 28.842C27.5743 26.5072 30.25 25.3412 30.25 23.375V8.9375M17.875 30.25V15.125M5.5 8.9375V13.0625" stroke="black" stroke-width="1.5" stroke-linecap="round" stroke-linejoin="round"/>
<path d="M24.9384 5.522L10.8171 12.3544M2.75 17.875H6.875M2.75 22H6.875M12.8233 13.3251L8.80688 11.3822C6.60275 10.3152 5.5 9.78175 5.5 8.9375C5.5 8.09325 6.60275 7.55975 8.80688 6.49275L12.8219 4.54988C15.3037 3.3495 16.5412 2.75 17.875 2.75C19.2088 2.75 20.4476 3.3495 22.9267 4.54988L26.9431 6.49275C29.1472 7.55975 30.25 8.09325 30.25 8.9375C30.25 9.78175 29.1472 10.3152 26.9431 11.3822L22.9281 13.3251C20.4462 14.5255 19.2088 15.125 17.875 15.125C16.5412 15.125 15.3024 14.5255 12.8233 13.3251Z" stroke="black" stroke-width="1.5" stroke-linecap="round" stroke-linejoin="round"/>
</svg>
