<svg width="16" height="16" viewBox="0 0 16 16" fill="none" xmlns="http://www.w3.org/2000/svg">
<path d="M14.38 9.7425C14.385 9.695 14.4 9.65 14.4 9.6025C14.4 8.72 13.6825 8.0025 12.8 8.0025C12.485 8.0025 12.195 8.0975 11.9475 8.2525C11.5075 7.2825 10.535 6.6025 9.4 6.6025C7.855 6.6025 6.6 7.855 6.6 9.4025C6.6 9.4775 6.6175 9.5475 6.6225 9.62C5.3825 9.7125 4.4 10.7375 4.4 12.0025C4.4 13.3275 5.475 14.4025 6.8 14.4025H13.6C14.925 14.4025 16 13.3275 16 12.0025C16 10.95 15.32 10.0675 14.38 9.7425ZM3.62 9.1775C2.5275 8.085 2.5275 6.31 3.62 5.22C4.7125 4.1275 6.4875 4.1275 7.58 5.22C7.8225 5.4625 8.0025 5.7425 8.1375 6.0375C8.3825 5.945 8.64 5.8875 8.905 5.85L9.65 3.6275C9.75 3.33 9.4675 3.05 9.17 3.1475L6.975 3.88L5.9375 1.81C5.8 1.53 5.4 1.53 5.26 1.81L4.225 3.88L2.0275 3.1475C1.7325 3.05 1.45 3.3325 1.5475 3.6275L2.28 5.8225L0.21 6.86C-0.07 7 -0.07 7.3975 0.21 7.5375L2.28 8.5725L1.5475 10.7675C1.4475 11.065 1.73 11.345 2.0275 11.2475L3.93 10.615C4.0825 10.305 4.28 10.0225 4.52 9.7775C4.1925 9.6425 3.885 9.4425 3.62 9.1775ZM3.5 7.1975C3.5 8.2175 4.2325 9.0675 5.1975 9.255C5.3975 9.1375 5.605 9.035 5.8275 8.9625C5.9625 7.855 6.6025 6.9 7.5125 6.3375C7.1825 5.61 6.45 5.1 5.6 5.1C4.4425 5.1 3.5 6.04 3.5 7.1975Z" fill="#E26285"/>
</svg>
