<svg width="36" height="36" viewBox="0 0 36 36" fill="none" xmlns="http://www.w3.org/2000/svg">
<path d="M15.825 4.314L6.8925 9.27301C6.19538 9.66162 5.61502 10.2298 5.2117 10.9185C4.80839 11.6072 4.59683 12.3914 4.599 13.1895V22.8105C4.5971 23.6084 4.80878 24.3922 5.21208 25.0806C5.61538 25.7691 6.1956 26.337 6.8925 26.7255L15.828 31.686C16.4927 32.0559 17.2408 32.25 18.0015 32.25C18.7622 32.25 19.5103 32.0559 20.175 31.686L29.1105 26.727C29.8076 26.3384 30.388 25.7702 30.7913 25.0815C31.1946 24.3928 31.4062 23.6086 31.404 22.8105V13.1895C31.4059 12.3916 31.1942 11.6078 30.7909 10.9194C30.3876 10.2309 29.8074 9.663 29.1105 9.27451L20.175 4.314C19.5103 3.94413 18.7622 3.75 18.0015 3.75C17.2408 3.75 16.4927 3.94413 15.828 4.314H15.825Z" stroke="black" stroke-width="1.5"/>
<path d="M30.495 10.494L18 18M18 18L5.505 10.494M18 18V32.235" stroke="black" stroke-width="1.5"/>
<g clip-path="url(#clip0_28_125)">
<path d="M9.72579 24.8569C10.7882 24.4702 11.3258 23.5708 11.0174 22.7237C10.7672 22.0363 10.1101 21.7644 9.29943 22.0005L9.29438 21.9866C9.91359 21.6353 10.1627 21.0454 9.93778 20.4274C9.66481 19.6774 8.78734 19.3835 7.843 19.7272C7.12791 19.9875 6.66187 20.511 6.60351 21.118C6.58786 21.2691 6.59959 21.3985 6.64889 21.534C6.70826 21.6971 6.85845 21.7644 7.01823 21.7062C7.17801 21.6481 7.22589 21.5639 7.21858 21.3817C7.20222 20.8725 7.4894 20.4732 8.02054 20.2798C8.63852 20.0549 9.15661 20.2359 9.33982 20.7393C9.52813 21.2567 9.22957 21.7545 8.60464 21.9819L8.22286 22.1209C8.05975 22.1802 7.98874 22.3202 8.04689 22.4799C8.10373 22.6361 8.24918 22.7012 8.41244 22.6417L8.80117 22.5003C9.57199 22.2197 10.1489 22.3791 10.36 22.9591C10.5546 23.4937 10.2166 24.0453 9.52946 24.2954C8.92869 24.5141 8.40099 24.4034 8.07785 24.0019C7.97144 23.8717 7.86058 23.8373 7.71485 23.8904C7.53437 23.956 7.45673 24.1102 7.52242 24.2906C7.56667 24.4122 7.63833 24.5118 7.74857 24.6094C8.23637 25.053 8.95165 25.1387 9.72579 24.8569ZM12.5098 23.7453L13.9332 23.2272C15.4888 22.661 16.0504 21.4068 15.4805 19.8412C14.9106 18.2754 13.6817 17.6965 12.1263 18.2626L10.7029 18.7807C10.512 18.8502 10.4359 19.0193 10.5066 19.2137L12.0799 23.5361C12.1519 23.7339 12.3189 23.8147 12.5098 23.7453ZM12.6186 23.0609L11.2235 19.228L12.2892 18.8401C13.4802 18.4066 14.3959 18.8597 14.8395 20.0783C15.2855 21.3038 14.8753 22.2395 13.6843 22.673L12.6186 23.0609Z" fill="black"/>
</g>
<defs>
<clipPath id="clip0_28_125">
<rect width="9" height="9" fill="white" transform="translate(5.4823 18.6855) rotate(-20)"/>
</clipPath>
</defs>
</svg>
