<svg width="34" height="34" viewBox="0 0 34 34" fill="none" xmlns="http://www.w3.org/2000/svg">
<path d="M5.6695 30.0678C4.68728 30.0678 3.85097 29.7231 3.16058 29.0336C2.47019 28.3442 2.125 27.5098 2.125 26.5304C2.125 25.551 2.46925 24.7142 3.15775 24.02C3.84625 23.3259 4.68161 22.9811 5.66383 22.9859C6.64606 22.9906 7.48236 23.3344 8.17275 24.0172C8.86314 24.7 9.20833 25.5354 9.20833 26.5233C9.20833 27.5112 8.86456 28.3479 8.177 29.0336C7.48945 29.7193 6.65361 30.064 5.6695 30.0678ZM11.7059 25.1449C11.5284 24.3185 11.1898 23.5639 10.6902 22.881C10.1906 22.1982 9.58139 21.6613 8.86267 21.2703L13.4612 16.7185H1.98333C1.40911 16.7185 0.935 16.5155 0.561 16.1094C0.187 15.6995 0 15.1984 0 14.6063C0 14.237 0.0920836 13.9046 0.27625 13.6089C0.460417 13.3133 0.698889 13.0631 0.991666 12.8581L16.5693 3.15111C16.8309 3 17.1072 2.96222 17.3981 3.03778C17.689 3.11333 17.9095 3.27767 18.0597 3.53078C18.2098 3.78389 18.2523 4.05353 18.1872 4.33969C18.1211 4.62869 17.969 4.84828 17.731 4.99844L4.33217 13.7478H17.85C18.4072 13.7478 18.8771 13.939 19.2596 14.3215C19.6421 14.704 19.8333 15.1739 19.8333 15.7311C19.8333 16.0702 19.7984 16.404 19.7285 16.7327C19.6586 17.0623 19.5066 17.3442 19.2723 17.5784L11.7059 25.1449Z" fill="black"/>
</svg>
