<svg width="17" height="17" viewBox="0 0 17 17" fill="none" xmlns="http://www.w3.org/2000/svg">
<g clip-path="url(#clip0_2_20)">
<path d="M16.8648 5.814C12.1587 1.46121 4.83942 1.4628 0.135203 5.814C-0.0417028 5.97763 -0.045156 6.25467 0.125907 6.42441L1.03541 7.32674C1.1985 7.48877 1.46094 7.49222 1.63041 7.33683C5.50641 3.78596 11.4931 3.78516 15.3699 7.33683C15.5393 7.49222 15.8018 7.4885 15.9649 7.32674L16.8744 6.42441C17.0452 6.25467 17.0417 5.97763 16.8648 5.814ZM8.5 11.05C7.56102 11.05 6.8 11.811 6.8 12.75C6.8 13.689 7.56102 14.45 8.5 14.45C9.43898 14.45 10.2 13.689 10.2 12.75C10.2 11.811 9.43898 11.05 8.5 11.05ZM13.8834 8.82964C10.8218 6.12213 6.17472 6.12505 3.11658 8.82964C2.9333 8.99167 2.92745 9.27297 3.10144 9.44457L4.01625 10.3474C4.17563 10.5047 4.43222 10.5153 4.60195 10.3687C6.83188 8.44103 10.1732 8.44528 12.3978 10.3687C12.5675 10.5153 12.8241 10.5049 12.9835 10.3474L13.8983 9.44457C14.0725 9.27297 14.0664 8.99141 13.8834 8.82964Z" fill="black"/>
</g>
<defs>
<clipPath id="clip0_2_20">
<rect width="17" height="17" fill="white"/>
</clipPath>
</defs>
</svg>
